<svg xmlns="http://www.w3.org/2000/svg" version="1.1"
    xmlns:xlink="http://www.w3.org/1999/xlink" viewBox="0 0 24 24" style="enable-background:new 0 0 512 512" xml:space="preserve" fill-rule="evenodd" class="">
    <g transform="matrix(1.1099999999999994,0,0,1.1099999999999994,-1.3209412264823825,-1.3199999999999932)">
        <path d="M6.328 17.75c2.351 0 4.25-1.875 4.25-4.179V8.429c0-2.304-1.899-4.179-4.25-4.179s-4.25 1.875-4.25 4.179v5.142c0 2.304 1.899 4.179 4.25 4.179zm0-1.5c-1.515 0-2.75-1.195-2.75-2.679V8.429c0-1.484 1.235-2.679 2.75-2.679s2.75 1.195 2.75 2.679v5.142c0 1.484-1.235 2.679-2.75 2.679z"></path>
        <path d="M6.328 18.25a4.532 4.532 0 0 1-3.567-1.715.751.751 0 0 0-1.178.93c1.097 1.389 2.814 2.285 4.745 2.285s3.648-.896 4.745-2.285a.751.751 0 0 0-1.178-.93 4.532 4.532 0 0 1-3.567 1.715z"></path>
        <path d="M5.578 19v3a.75.75 0 0 0 1.5 0v-3a.75.75 0 0 0-1.5 0z"></path>
        <path d="M8.328 21.25h-4a.75.75 0 0 0 0 1.5h4a.75.75 0 0 0 0-1.5zM22.578 3a1.75 1.75 0 0 0-1.75-1.75h-8A1.75 1.75 0 0 0 11.078 3v5c0 .464.184.909.513 1.237.328.329.773.513 1.237.513h.75v1.75a.749.749 0 0 0 1.23.576l2.791-2.326h3.229c.464 0 .909-.184 1.237-.513.329-.328.513-.773.513-1.237zm-1.5 0v5a.25.25 0 0 1-.25.25h-3.5a.753.753 0 0 0-.48.174l-1.77 1.475V9a.75.75 0 0 0-.75-.75h-1.5a.25.25 0 0 1-.25-.25V3a.25.25 0 0 1 .25-.25h8a.25.25 0 0 1 .25.25zM9.828 7.75h-1.5a.75.75 0 0 0 0 1.5h1.5a.75.75 0 0 0 0-1.5zM4.328 7.75h-1.5a.75.75 0 0 0 0 1.5h1.5a.75.75 0 0 0 0-1.5zM9.828 10.25h-1.5a.75.75 0 0 0 0 1.5h1.5a.75.75 0 0 0 0-1.5zM9.828 12.75h-1.5a.75.75 0 0 0 0 1.5h1.5a.75.75 0 0 0 0-1.5zM4.328 10.25h-1.5a.75.75 0 0 0 0 1.5h1.5a.75.75 0 0 0 0-1.5zM4.328 12.75h-1.5a.75.75 0 0 0 0 1.5h1.5a.75.75 0 0 0 0-1.5z"></path>
        <path d="M14.328 5.25h2.5a.75.75 0 0 0 0-1.5h-2.5a.75.75 0 0 0 0 1.5zM14.328 7.25h5a.75.75 0 0 0 0-1.5h-5a.75.75 0 0 0 0 1.5z"></path>
    </g>
</svg>