<svg xmlns="http://www.w3.org/2000/svg" version="1.1"
    xmlns:xlink="http://www.w3.org/1999/xlink" viewBox="0 0 96 96" style="enable-background:new 0 0 512 512" xml:space="preserve" fill-rule="evenodd">
    <g>
        <path d="M48 96c26.49 0 48-21.508 48-48S74.49 0 48 0 0 21.508 0 48c0 10.28 3.24 19.81 8.77 27.61a7.994 7.994 0 0 1-1.13 10.438l-7 6.485A2 2 0 0 0 2 96zm-2-27.094V75c0 1.104.9 2 2 2s2-.896 2-2v-6.094C60.66 67.898 69 58.923 69 48v-3c0-1.104-.9-2-2-2s-2 .896-2 2v3c0 9.389-7.61 17-17 17s-17-7.61-17-16.998V45c0-1.104-.9-2-2-2s-2 .896-2 2v3.002c0 10.923 8.34 19.898 19 20.904zM48 19c-7.18 0-13 5.82-13 13v16c0 7.18 5.82 13 13 13s13-5.82 13-13V32c0-7.18-5.82-13-13-13z"></path>
    </g>
</svg>