<?xml version="1.0" encoding="UTF-8"?>
<svg xmlns="http://www.w3.org/2000/svg" id="Layer_1" data-name="Layer 1" viewBox="0 0 24 24">
  <path d="M18.884,9.894c-.274,.029-.473,.276-.444,.55,.116,1.087,.175,2.18,.175,3.248,0,3.607-.688,6.514-.918,7.384-.905,.227-3.968,.924-7.39,.924s-6.488-.698-7.391-.924c-.23-.862-.917-3.741-.917-7.384,0-3.607,.688-6.514,.918-7.383,.904-.227,3.963-.924,7.39-.924,1.082,0,2.221,.069,3.386,.205,.287,.038,.523-.165,.555-.438,.032-.274-.165-.523-.438-.555-1.204-.14-2.382-.211-3.502-.211-4.209,0-7.78,.99-7.93,1.032-.165,.046-.294,.173-.343,.337-.042,.14-1.035,3.475-1.035,7.939,0,4.502,.993,7.803,1.035,7.941,.05,.163,.179,.289,.342,.335,.15,.042,3.712,1.032,7.931,1.032s7.78-.99,7.93-1.032c.165-.046,.294-.173,.343-.337,.042-.14,1.035-3.476,1.035-7.939,0-1.104-.061-2.232-.181-3.354-.029-.274-.269-.469-.55-.444Z"/>
  <path d="M22.213,1.747c-.055-.049-.119-.084-.188-.105h0c-.791-.318-3.665-1.251-7.467-.019-.263,.085-.406,.367-.321,.63s.367,.407,.63,.321c2.743-.889,4.935-.557,6.089-.237L9.955,13.338c-.195,.195-.204,.521,0,.707,.298,.272,.609,.098,.707,0L21.671,3.036c.296,1.063,.656,3.266-.245,6.1-.083,.263,.081,.64,.477,.651,.212,.006,.409-.136,.477-.349,1.42-4.467,.007-7.539-.165-7.692Z"/>
</svg>
