<svg xmlns="http://www.w3.org/2000/svg" version="1.0" viewBox="0 0 237.000000 227.000000" preserveAspectRatio="xMidYMid meet">

    <g transform="translate(0.000000,227.000000) scale(0.100000,-0.100000)" stroke="none">
        <path d="M585 2235 c-292 -54 -485 -244 -541 -533 -28 -148 -12 -352 41 -518 28 -90 88 -234 96 -234 4 0 14 24 24 53 81 252 379 667 496 691 44 9 131 8 127 -2 -1 -4 -34 -37 -73 -72 -228 -210 -410 -497 -475 -749 l-19 -75 48 -67 47 -67 12 83 c37 253 199 535 443 771 46 44 101 93 122 109 l38 28 57 -27 57 -28 -25 -17 c-44 -29 -185 -158 -255 -233 -134 -145 -256 -347 -307 -508 -18 -59 -23 -98 -23 -180 0 -130 11 -154 122 -261 144 -140 284 -237 468 -326 124 -59 118 -59 212 -16 l56 26 -94 37 c-120 47 -204 89 -304 155 -145 94 -311 239 -342 299 -14 27 -23 140 -12 151 3 2 61 -51 129 -119 205 -201 399 -328 614 -400 136 -45 147 -45 221 5 l64 43 -107 22 c-155 31 -267 77 -412 167 -139 87 -303 231 -411 361 l-57 70 26 53 c14 29 29 53 32 53 3 0 18 -19 34 -41 44 -62 202 -224 281 -289 146 -118 275 -193 416 -242 81 -27 108 -32 194 -33 124 0 173 19 252 102 452 473 612 1102 374 1471 -181 280 -546 373 -952 243 l-94 -30 -95 30 c-176 55 -358 71 -505 44z m377 -125 c232 -51 513 -206 716 -395 107 -100 130 -147 116 -234 l-6 -38 -102 105 c-415 428 -935 592 -1242 394 -68 -44 -103 -87 -144 -175 -41 -86 -53 -163 -47 -286 l5 -104 -36 -65 -36 -65 -11 34 c-44 127 -44 341 -1 474 32 99 60 144 132 217 149 150 378 199 656 138z m794 15 c160 -28 289 -106 368 -223 178 -263 128 -673 -132 -1072 -99 -153 -247 -318 -305 -339 -36 -14 -147 -14 -147 -1 0 6 4 10 8 10 12 0 134 122 217 217 166 190 294 431 336 638 47 225 7 409 -114 535 -97 99 -269 153 -431 134 l-80 -10 -70 40 -70 41 55 12 c145 34 245 38 365 18z m-819 -236 c139 -35 300 -117 454 -230 83 -61 295 -266 336 -324 l21 -30 -26 -53 c-14 -28 -28 -52 -32 -52 -4 0 -19 18 -33 39 -37 56 -195 219 -275 284 -152 124 -336 226 -472 263 -39 11 -101 18 -155 18 -139 1 -177 -23 -331 -203 -66 -78 -73 -75 -54 23 21 109 77 189 172 245 87 52 240 60 395 20z m823 9 c123 -36 208 -131 240 -267 17 -71 8 -213 -20 -311 -25 -87 -102 -253 -156 -337 -93 -143 -275 -344 -387 -428 l-38 -28 -55 26 -55 27 75 60 c97 78 251 241 325 344 76 105 142 230 177 336 25 73 29 100 29 195 0 93 -3 116 -22 150 -21 40 -166 187 -217 220 -14 9 -26 21 -26 26 0 10 78 2 130 -13z m-507 -415 c124 -95 367 -356 367 -394 0 -20 -78 -117 -170 -213 -77 -80 -248 -226 -265 -226 -14 0 -129 95 -217 178 -90 87 -218 239 -218 262 0 18 122 168 197 242 71 70 222 196 236 197 5 1 36 -20 70 -46z"/>
    </g>
</svg>