<svg xmlns="http://www.w3.org/2000/svg" version="1.1"
    xmlns:xlink="http://www.w3.org/1999/xlink" width="512" height="512" x="0" y="0" viewBox="0 0 24 24" style="enable-background:new 0 0 512 512" xml:space="preserve" class="">
    <g transform="matrix(1.1600000000000004,0,0,1.1600000000000004,-1.9200000000000124,-1.9381471633911218)">
        <path d="M9.924 2.909a3.5 3.5 0 0 1 4.152 0l6.5 4.79A3.5 3.5 0 0 1 22 10.515V18.5a3.5 3.5 0 0 1-3.5 3.5h-13A3.5 3.5 0 0 1 2 18.5v-7.984a3.5 3.5 0 0 1 1.424-2.818zm-2.612 7.7a.5.5 0 1 0-.624.781l4.375 3.5a1.5 1.5 0 0 0 1.874 0l4.375-3.5a.5.5 0 1 0-.624-.78l-4.376 3.5a.5.5 0 0 1-.624 0z" clip-rule="evenodd"></path>
    </g>
</svg>