<?xml version="1.0" standalone="no"?>
<!DOCTYPE svg PUBLIC "-//W3C//DTD SVG 20010904//EN" "http://www.w3.org/TR/2001/REC-SVG-20010904/DTD/svg10.dtd">
<svg xmlns="http://www.w3.org/2000/svg" version="1.0" width="500" height="500" viewBox="0 0 500.000000 500.000000" preserveAspectRatio="xMidYMid meet">

<g transform="translate(0.000000,500.000000) scale(0.100000,-0.100000)" fill="#000000" stroke="none">
<path d="M0 2500 l0 -2500 2500 0 2500 0 0 2500 0 2500 -2500 0 -2500 0 0 -2500z m2015 1846 c143 -26 364 -65 490 -87 651 -114 1412 -256 1441 -268 19 -8 22 -20 27 -118 15 -239 19 -1597 7 -2158 -7 -314 -15 -595 -19 -625 l-6 -55 -85 -17 c-149 -30 -932 -164 -1330 -227 -372 -59 -863 -133 -921 -138 l-66 -6 -7 104 c-4 57 -7 833 -8 1724 0 1527 5 1848 28 1909 7 17 16 18 98 13 50 -3 208 -26 351 -51z m-787 -258 l72 -11 0 -1557 c0 -1403 -2 -1558 -16 -1564 -39 -15 -149 -36 -189 -36 -27 0 -51 7 -66 19 l-23 18 -6 519 c-7 596 5 2138 19 2418 5 104 13 192 18 196 20 19 55 19 191 -2z"/>
<path d="M1946 3938 c-16 -13 -19 -38 -27 -249 -11 -278 -13 -2167 -3 -2386 4 -92 11 -156 18 -162 30 -23 147 -21 406 9 303 35 1235 154 1285 164 l60 12 -3 1019 c-2 999 -10 1357 -29 1376 -11 11 -72 22 -418 74 -539 82 -1003 142 -1165 151 -82 5 -109 3 -124 -8z"/>
</g>
</svg>